<svg width="384" height="312" viewBox="0 0 384 312" fill="none" xmlns="http://www.w3.org/2000/svg">
<rect x="10.0623" y="111.937" width="24.7232" height="24.7232" transform="rotate(24.0163 10.0623 111.937)" fill="#00B3FF"/>
<rect x="10.0623" y="111.937" width="24.7232" height="24.7232" transform="rotate(24.0163 10.0623 111.937)" fill="#00B3FF"/>
<rect x="10.0623" y="111.937" width="24.7232" height="24.7232" transform="rotate(24.0163 10.0623 111.937)" fill="#00B3FF"/>
<rect width="10.2957" height="24.7232" transform="matrix(0.998042 0.0625517 -0.406996 0.91343 32.6453 121.998)" fill="#64CCF9"/>
<rect width="24.7232" height="10.5439" transform="matrix(0.91343 0.406996 -0.997408 -0.0719551 20.5913 112.667)" fill="#B3E8FF"/>
<rect x="57.8933" y="220.349" width="13.625" height="13.625" transform="rotate(-12.8251 57.8933 220.349)" fill="#42FF00"/>
<rect x="57.8933" y="220.349" width="13.625" height="13.625" transform="rotate(-12.8251 57.8933 220.349)" fill="#42FF00"/>
<rect x="57.8933" y="220.349" width="13.625" height="13.625" transform="rotate(-12.8251 57.8933 220.349)" fill="#42FF00"/>
<rect width="5.67395" height="13.625" transform="matrix(0.836237 -0.548368 0.221976 0.975052 71.1781 217.325)" fill="#8AFF61"/>
<rect width="13.625" height="5.8107" transform="matrix(0.975052 -0.221976 -0.841368 0.540462 62.7783 217.192)" fill="#CCFFBA"/>
<rect x="382.684" y="105.586" width="23.1554" height="23.1554" transform="rotate(165 382.684 105.586)" fill="#00B3FF"/>
<rect x="382.684" y="105.586" width="23.1554" height="23.1554" transform="rotate(165 382.684 105.586)" fill="#00B3FF"/>
<rect x="382.684" y="105.586" width="23.1554" height="23.1554" transform="rotate(165 382.684 105.586)" fill="#00B3FF"/>
<rect width="9.64278" height="23.1554" transform="matrix(-0.814824 0.579708 -0.258819 -0.965926 360.317 111.578)" fill="#64CCF9"/>
<rect width="23.1554" height="9.8752" transform="matrix(-0.965926 0.258819 0.820252 -0.572003 374.591 111.262)" fill="#B3E8FF"/>
<rect x="131.265" y="236.014" width="75.0135" height="75.0135" fill="#FF4D00"/>
<rect x="131.265" y="236.014" width="75.0135" height="75.0135" fill="#FF4D00"/>
<rect x="131.265" y="236.014" width="75.0135" height="75.0135" fill="#FF4D00"/>
<rect width="31.2385" height="75.0135" transform="matrix(0.937099 -0.349063 0 1 206.278 236.014)" fill="#F9804C"/>
<rect width="75.0135" height="31.9914" transform="matrix(1 0 -0.940348 0.340215 161.348 225.038)" fill="#FFC6AD"/>
<rect x="93.7581" y="161.001" width="75.0135" height="75.0135" fill="#FF4D00"/>
<rect x="93.7581" y="161.001" width="75.0135" height="75.0135" fill="#FF4D00"/>
<rect x="93.7581" y="161.001" width="75.0135" height="75.0135" fill="#FF4D00"/>
<rect width="31.2385" height="75.0135" transform="matrix(0.937099 -0.349063 0 1 168.772 161.001)" fill="#F9804C"/>
<rect width="75.0135" height="31.9914" transform="matrix(1 0 -0.940348 0.340215 123.841 150.024)" fill="#FFC6AD"/>
<rect x="56.2512" y="85.9873" width="75.0135" height="75.0135" fill="#FF4D00"/>
<rect x="56.2512" y="85.9873" width="75.0135" height="75.0135" fill="#FF4D00"/>
<rect x="56.2512" y="85.9873" width="75.0135" height="75.0135" fill="#FF4D00"/>
<rect width="31.2385" height="75.0135" transform="matrix(0.937099 -0.349063 0 1 131.265 85.9873)" fill="#F9804C"/>
<rect width="75.0135" height="31.9914" transform="matrix(1 0 -0.940348 0.340215 86.3344 75.0107)" fill="#FFC6AD"/>
<rect x="16" y="10.9766" width="75.0135" height="75.0135" fill="#FF4D00"/>
<rect x="16" y="10.9766" width="75.0135" height="75.0135" fill="#FF4D00"/>
<rect x="16" y="10.9766" width="75.0135" height="75.0135" fill="#FF4D00"/>
<rect width="31.2385" height="75.0135" transform="matrix(0.937099 -0.349063 0 1 91.0134 10.9766)" fill="#F9804C"/>
<rect width="75.0135" height="31.9914" transform="matrix(1 0 -0.940348 0.340215 46.0833 0)" fill="#FFC6AD"/>
<rect x="168.771" y="161.001" width="75.0135" height="75.0135" fill="#FF4D00"/>
<rect x="168.771" y="161.001" width="75.0135" height="75.0135" fill="#FF4D00"/>
<rect x="168.771" y="161.001" width="75.0135" height="75.0135" fill="#FF4D00"/>
<rect width="31.2385" height="75.0135" transform="matrix(0.937099 -0.349063 0 1 243.785 161.001)" fill="#F9804C"/>
<rect width="75.0135" height="31.9914" transform="matrix(1 0 -0.940348 0.340215 198.855 150.024)" fill="#FFC6AD"/>
<rect x="206.278" y="91.4775" width="75.0135" height="75.0135" fill="#FF4D00"/>
<rect x="206.278" y="91.4775" width="75.0135" height="75.0135" fill="#FF4D00"/>
<rect x="206.278" y="91.4775" width="75.0135" height="75.0135" fill="#FF4D00"/>
<rect width="31.2385" height="75.0135" transform="matrix(0.937099 -0.349063 0 1 281.292 91.4775)" fill="#F9804C"/>
<rect width="75.0135" height="31.9914" transform="matrix(1 0 -0.940348 0.340215 236.361 80.501)" fill="#FFC6AD"/>
<rect x="243.785" y="16.4639" width="75.0135" height="75.0135" fill="#FF4D00"/>
<rect x="243.785" y="16.4639" width="75.0135" height="75.0135" fill="#FF4D00"/>
<rect x="243.785" y="16.4639" width="75.0135" height="75.0135" fill="#FF4D00"/>
<rect width="31.2385" height="75.0135" transform="matrix(0.937099 -0.349063 0 1 318.799 16.4639)" fill="#F9804C"/>
<rect width="75.0135" height="31.9914" transform="matrix(1 0 -0.940348 0.340215 273.868 5.4873)" fill="#FFC6AD"/>
</svg>
